<?xml version="1.0" standalone="no"?>
<!DOCTYPE svg PUBLIC "-//W3C//DTD SVG 20010904//EN"
 "http://www.w3.org/TR/2001/REC-SVG-20010904/DTD/svg10.dtd">
<svg version="1.0" xmlns="http://www.w3.org/2000/svg"
 width="512.000000pt" height="512.000000pt" viewBox="0 0 512.000000 512.000000"
 preserveAspectRatio="xMidYMid meet">
<metadata>
Created by potrace 1.11, written by Peter Selinger 2001-2013
</metadata>
<g transform="translate(0.000000,512.000000) scale(0.100000,-0.100000)"
fill="#000000" stroke="none">
<path d="M2488 4855 c-26 -6 -71 -26 -99 -43 -27 -18 -55 -32 -60 -32 -5 0 -9
-4 -9 -10 0 -5 -4 -10 -9 -10 -5 0 -132 -74 -283 -163 -236 -141 -681 -407
-1223 -730 -161 -95 -214 -143 -242 -217 -17 -42 -18 -118 -18 -1095 l0 -1050
27 -55 c32 -66 75 -107 163 -156 11 -6 139 -82 285 -169 791 -473 1242 -741
1258 -750 10 -5 51 -30 91 -54 138 -84 244 -87 364 -11 26 16 50 30 53 30 3 0
17 9 32 19 29 20 854 513 912 544 19 11 46 27 60 36 14 9 34 21 45 28 11 6 98
58 193 115 94 57 180 108 190 113 263 151 317 197 346 294 11 38 13 237 12
1086 l-1 1040 -28 57 c-17 35 -45 71 -70 91 -43 34 -192 127 -205 127 -4 0
-25 14 -46 30 -22 17 -43 30 -48 30 -5 0 -32 15 -61 34 -28 18 -101 63 -162
98 -60 36 -240 143 -400 238 -159 95 -302 180 -317 189 -15 9 -147 87 -292
174 -311 186 -349 200 -458 172z"/>
</g>
</svg>
