<?xml version="1.0" standalone="no"?>
<!DOCTYPE svg PUBLIC "-//W3C//DTD SVG 20010904//EN"
 "http://www.w3.org/TR/2001/REC-SVG-20010904/DTD/svg10.dtd">
<svg version="1.0" xmlns="http://www.w3.org/2000/svg"
 width="700.000000pt" height="700.000000pt" viewBox="0 0 700.000000 700.000000"
 preserveAspectRatio="xMidYMid meet">
<metadata>
Created by potrace 1.14, written by Peter Selinger 2001-2017
</metadata>
<g transform="translate(0.000000,700.000000) scale(0.100000,-0.100000)"
fill="#000000" stroke="none">
<path d="M3400 6342 c-100 -13 -270 -83 -370 -152 -14 -9 -38 -24 -55 -32 -31
-15 -298 -170 -325 -188 -8 -6 -22 -13 -30 -17 -8 -4 -51 -28 -95 -54 -77 -45
-563 -326 -890 -514 -237 -136 -269 -154 -285 -165 -8 -5 -38 -22 -66 -39
-181 -105 -317 -317 -342 -531 -3 -30 -6 -561 -6 -1180 l0 -1125 22 -83 c34
-125 88 -225 172 -316 79 -85 88 -91 645 -411 132 -76 257 -149 277 -161 21
-13 40 -24 42 -24 2 0 50 -27 105 -60 56 -33 106 -60 111 -60 6 0 10 -4 10
-10 0 -5 4 -10 9 -10 8 0 160 -86 366 -206 22 -13 76 -44 120 -69 44 -26 94
-54 110 -64 17 -10 48 -28 70 -41 22 -12 70 -40 107 -61 229 -134 471 -153
691 -55 42 18 336 185 472 267 17 10 41 24 55 32 50 28 119 68 335 192 121 70
234 135 250 145 17 9 134 77 260 150 127 73 250 144 274 158 25 14 68 38 95
55 28 16 71 41 96 55 145 82 226 149 295 247 70 98 114 204 131 315 4 25 8
547 8 1160 2 1150 0 1190 -38 1305 -51 149 -163 291 -296 377 -51 33 -770 450
-1025 595 -33 19 -67 38 -75 43 -19 11 -611 353 -700 404 -96 55 -203 104
-241 110 -19 3 -51 10 -71 15 -36 9 -166 11 -218 3z"/>
</g>
</svg>
